<mxfile host="app.diagrams.net" modified="2023-07-21T03:22:29.915Z" agent="Mozilla/5.0 (Windows NT 10.0; Win64; x64) AppleWebKit/537.36 (KHTML, like Gecko) Chrome/114.0.0.0 Safari/537.36 Edg/114.0.1823.82" version="21.3.2" etag="61sPTcX5e2KZ4jkWj23P" type="github">
  <diagram name="第 1 页" id="YO3eLfNFKm5j5emjktuk">
    <mxGraphModel>
      <root>
        <mxCell id="0" />
        <mxCell id="1" parent="0" />
      </root>
    </mxGraphModel>
  </diagram>
</mxfile>
